<mxfile host="app.diagrams.net" modified="2020-09-12T17:00:28.956Z" agent="5.0 (Windows NT 10.0; Win64; x64) AppleWebKit/537.36 (KHTML, like Gecko) Chrome/85.0.4183.102 Safari/537.36" etag="PqsYh4tKKpXbf-VUS53L" version="13.6.9" type="github">
  <diagram id="NR8EmCfcTwYwSYzLjEDS" name="Page-1">
    <mxGraphModel dx="1718" dy="471" grid="1" gridSize="10" guides="1" tooltips="1" connect="1" arrows="1" fold="1" page="1" pageScale="1" pageWidth="850" pageHeight="1100" math="0" shadow="0">
      <root>
        <mxCell id="0" />
        <mxCell id="1" parent="0" />
        <mxCell id="uZ9GTR5RrIheTeO01Olr-2" value="esxi02-fw1" style="rounded=0;whiteSpace=wrap;html=1;" parent="1" vertex="1">
          <mxGeometry x="200" y="120" width="160" height="60" as="geometry" />
        </mxCell>
        <mxCell id="uZ9GTR5RrIheTeO01Olr-4" value="" style="endArrow=classic;html=1;entryX=0;entryY=0.5;entryDx=0;entryDy=0;" parent="1" target="uZ9GTR5RrIheTeO01Olr-5" edge="1">
          <mxGeometry width="50" height="50" relative="1" as="geometry">
            <mxPoint x="80" y="160" as="sourcePoint" />
            <mxPoint x="250" y="280" as="targetPoint" />
            <Array as="points">
              <mxPoint x="220" y="160" />
              <mxPoint x="220" y="400" />
            </Array>
          </mxGeometry>
        </mxCell>
        <mxCell id="uZ9GTR5RrIheTeO01Olr-5" value="sec350.cyber.local&lt;br&gt;10.0.17.100" style="rounded=0;whiteSpace=wrap;html=1;" parent="1" vertex="1">
          <mxGeometry x="260" y="370" width="120" height="60" as="geometry" />
        </mxCell>
        <mxCell id="uZ9GTR5RrIheTeO01Olr-6" value="port forwarding" style="text;html=1;strokeColor=none;fillColor=none;align=center;verticalAlign=middle;whiteSpace=wrap;rounded=0;rotation=90;" parent="1" vertex="1">
          <mxGeometry x="150" y="260" width="110" height="20" as="geometry" />
        </mxCell>
        <mxCell id="uZ9GTR5RrIheTeO01Olr-7" value="SEC350-WAN 10.0.17.0/24" style="rounded=1;whiteSpace=wrap;html=1;" parent="1" vertex="1">
          <mxGeometry x="240" y="310" width="320" height="20" as="geometry" />
        </mxCell>
        <mxCell id="uZ9GTR5RrIheTeO01Olr-10" value="" style="endArrow=none;html=1;entryX=0.25;entryY=1;entryDx=0;entryDy=0;exitX=0.5;exitY=0;exitDx=0;exitDy=0;" parent="1" source="uZ9GTR5RrIheTeO01Olr-5" target="uZ9GTR5RrIheTeO01Olr-7" edge="1">
          <mxGeometry width="50" height="50" relative="1" as="geometry">
            <mxPoint x="120" y="370" as="sourcePoint" />
            <mxPoint x="170" y="320" as="targetPoint" />
          </mxGeometry>
        </mxCell>
        <mxCell id="uZ9GTR5RrIheTeO01Olr-11" value="SEC350 Student" style="shape=umlActor;verticalLabelPosition=bottom;verticalAlign=top;html=1;outlineConnect=0;" parent="1" vertex="1">
          <mxGeometry x="50" y="130" width="30" height="60" as="geometry" />
        </mxCell>
        <mxCell id="uZ9GTR5RrIheTeO01Olr-12" value="" style="endArrow=none;html=1;exitX=0.25;exitY=0;exitDx=0;exitDy=0;entryX=0.75;entryY=1;entryDx=0;entryDy=0;" parent="1" source="uZ9GTR5RrIheTeO01Olr-7" target="uZ9GTR5RrIheTeO01Olr-2" edge="1">
          <mxGeometry width="50" height="50" relative="1" as="geometry">
            <mxPoint x="330" y="310" as="sourcePoint" />
            <mxPoint x="380" y="260" as="targetPoint" />
          </mxGeometry>
        </mxCell>
        <mxCell id="uZ9GTR5RrIheTeO01Olr-14" value="10.0.17.2" style="text;html=1;strokeColor=none;fillColor=none;align=center;verticalAlign=middle;whiteSpace=wrap;rounded=0;" parent="1" vertex="1">
          <mxGeometry x="330" y="190" width="40" height="20" as="geometry" />
        </mxCell>
        <mxCell id="uZ9GTR5RrIheTeO01Olr-15" value="192.168.4.6" style="text;html=1;strokeColor=none;fillColor=none;align=center;verticalAlign=middle;whiteSpace=wrap;rounded=0;" parent="1" vertex="1">
          <mxGeometry x="120" y="130" width="70" height="20" as="geometry" />
        </mxCell>
        <mxCell id="uZ9GTR5RrIheTeO01Olr-17" value="fw01" style="ellipse;whiteSpace=wrap;html=1;aspect=fixed;" parent="1" vertex="1">
          <mxGeometry x="360" y="540" width="80" height="80" as="geometry" />
        </mxCell>
        <mxCell id="uZ9GTR5RrIheTeO01Olr-18" value="" style="endArrow=none;html=1;exitX=0.5;exitY=1;exitDx=0;exitDy=0;" parent="1" source="uZ9GTR5RrIheTeO01Olr-7" target="uZ9GTR5RrIheTeO01Olr-17" edge="1">
          <mxGeometry width="50" height="50" relative="1" as="geometry">
            <mxPoint x="450" y="360" as="sourcePoint" />
            <mxPoint x="410" y="490" as="targetPoint" />
          </mxGeometry>
        </mxCell>
        <mxCell id="uZ9GTR5RrIheTeO01Olr-19" value="" style="endArrow=none;html=1;entryX=0.75;entryY=1;entryDx=0;entryDy=0;exitX=0.5;exitY=0;exitDx=0;exitDy=0;" parent="1" source="uZ9GTR5RrIheTeO01Olr-21" target="uZ9GTR5RrIheTeO01Olr-7" edge="1">
          <mxGeometry width="50" height="50" relative="1" as="geometry">
            <mxPoint x="480" y="420" as="sourcePoint" />
            <mxPoint x="420" y="260" as="targetPoint" />
          </mxGeometry>
        </mxCell>
        <mxCell id="uZ9GTR5RrIheTeO01Olr-21" value="rw01&lt;br&gt;10.0.17.36" style="rounded=0;whiteSpace=wrap;html=1;" parent="1" vertex="1">
          <mxGeometry x="420" y="370" width="120" height="60" as="geometry" />
        </mxCell>
        <mxCell id="uZ9GTR5RrIheTeO01Olr-22" value="eth0&lt;br&gt;10.0.17." style="text;html=1;strokeColor=none;fillColor=none;align=center;verticalAlign=middle;whiteSpace=wrap;rounded=0;" parent="1" vertex="1">
          <mxGeometry x="405" y="510" width="65" height="30" as="geometry" />
        </mxCell>
        <mxCell id="uZ9GTR5RrIheTeO01Olr-23" value="" style="endArrow=none;html=1;entryX=0;entryY=1;entryDx=0;entryDy=0;exitX=0.5;exitY=0;exitDx=0;exitDy=0;" parent="1" source="uZ9GTR5RrIheTeO01Olr-25" target="uZ9GTR5RrIheTeO01Olr-17" edge="1">
          <mxGeometry width="50" height="50" relative="1" as="geometry">
            <mxPoint x="250" y="660" as="sourcePoint" />
            <mxPoint x="420" y="350" as="targetPoint" />
            <Array as="points">
              <mxPoint x="200" y="608" />
            </Array>
          </mxGeometry>
        </mxCell>
        <mxCell id="uZ9GTR5RrIheTeO01Olr-24" value="" style="endArrow=none;html=1;entryX=1;entryY=1;entryDx=0;entryDy=0;exitX=0.5;exitY=0;exitDx=0;exitDy=0;" parent="1" source="uZ9GTR5RrIheTeO01Olr-26" target="uZ9GTR5RrIheTeO01Olr-17" edge="1">
          <mxGeometry width="50" height="50" relative="1" as="geometry">
            <mxPoint x="560" y="640" as="sourcePoint" />
            <mxPoint x="420" y="550" as="targetPoint" />
            <Array as="points">
              <mxPoint x="600" y="608" />
            </Array>
          </mxGeometry>
        </mxCell>
        <mxCell id="uZ9GTR5RrIheTeO01Olr-25" value="DMZ 172.16.50.0/29" style="rounded=1;whiteSpace=wrap;html=1;" parent="1" vertex="1">
          <mxGeometry x="120" y="660" width="160" height="20" as="geometry" />
        </mxCell>
        <mxCell id="uZ9GTR5RrIheTeO01Olr-26" value="LAN 172.16.150.0/24" style="rounded=1;whiteSpace=wrap;html=1;" parent="1" vertex="1">
          <mxGeometry x="520" y="660" width="160" height="20" as="geometry" />
        </mxCell>
        <mxCell id="1DaKglO0L2ceDpw5gByN-1" value="web01&lt;br&gt;172.16.50.3" style="rounded=0;whiteSpace=wrap;html=1;" vertex="1" parent="1">
          <mxGeometry x="70" y="730" width="120" height="60" as="geometry" />
        </mxCell>
        <mxCell id="1DaKglO0L2ceDpw5gByN-2" value="log01&lt;br&gt;172.16.50.5" style="rounded=0;whiteSpace=wrap;html=1;" vertex="1" parent="1">
          <mxGeometry x="210" y="730" width="120" height="60" as="geometry" />
        </mxCell>
        <mxCell id="1DaKglO0L2ceDpw5gByN-3" value="wks01&lt;br&gt;172.16.150.50" style="rounded=0;whiteSpace=wrap;html=1;" vertex="1" parent="1">
          <mxGeometry x="515" y="730" width="120" height="60" as="geometry" />
        </mxCell>
        <mxCell id="1DaKglO0L2ceDpw5gByN-4" value="wks-linux&lt;br&gt;172.16.150.51" style="rounded=0;whiteSpace=wrap;html=1;" vertex="1" parent="1">
          <mxGeometry x="655" y="730" width="120" height="60" as="geometry" />
        </mxCell>
        <mxCell id="1DaKglO0L2ceDpw5gByN-6" value="eth2&lt;br&gt;172.16.150.2" style="text;html=1;strokeColor=none;fillColor=none;align=center;verticalAlign=middle;whiteSpace=wrap;rounded=0;" vertex="1" parent="1">
          <mxGeometry x="447.5" y="565" width="65" height="30" as="geometry" />
        </mxCell>
        <mxCell id="1DaKglO0L2ceDpw5gByN-7" value="eth1&lt;br&gt;172.16.50.2" style="text;html=1;strokeColor=none;fillColor=none;align=center;verticalAlign=middle;whiteSpace=wrap;rounded=0;" vertex="1" parent="1">
          <mxGeometry x="287.5" y="565" width="65" height="30" as="geometry" />
        </mxCell>
        <mxCell id="1DaKglO0L2ceDpw5gByN-8" value="fw01" style="ellipse;whiteSpace=wrap;html=1;aspect=fixed;" vertex="1" parent="1">
          <mxGeometry x="425" y="720" width="80" height="80" as="geometry" />
        </mxCell>
        <mxCell id="1DaKglO0L2ceDpw5gByN-9" value="" style="endArrow=none;html=1;entryX=0.5;entryY=1;entryDx=0;entryDy=0;exitX=0.5;exitY=0;exitDx=0;exitDy=0;" edge="1" parent="1" source="1DaKglO0L2ceDpw5gByN-8" target="uZ9GTR5RrIheTeO01Olr-26">
          <mxGeometry width="50" height="50" relative="1" as="geometry">
            <mxPoint x="470" y="790" as="sourcePoint" />
            <mxPoint x="520" y="740" as="targetPoint" />
            <Array as="points">
              <mxPoint x="465" y="710" />
            </Array>
          </mxGeometry>
        </mxCell>
        <mxCell id="1DaKglO0L2ceDpw5gByN-10" value="" style="endArrow=none;html=1;exitX=0.5;exitY=0;exitDx=0;exitDy=0;" edge="1" parent="1" source="1DaKglO0L2ceDpw5gByN-3">
          <mxGeometry width="50" height="50" relative="1" as="geometry">
            <mxPoint x="290" y="790" as="sourcePoint" />
            <mxPoint x="600" y="680" as="targetPoint" />
            <Array as="points">
              <mxPoint x="575" y="710" />
            </Array>
          </mxGeometry>
        </mxCell>
        <mxCell id="1DaKglO0L2ceDpw5gByN-11" value="" style="endArrow=none;html=1;exitX=0.5;exitY=0;exitDx=0;exitDy=0;" edge="1" parent="1" source="1DaKglO0L2ceDpw5gByN-4">
          <mxGeometry width="50" height="50" relative="1" as="geometry">
            <mxPoint x="650" y="750" as="sourcePoint" />
            <mxPoint x="600" y="680" as="targetPoint" />
            <Array as="points">
              <mxPoint x="715" y="710" />
            </Array>
          </mxGeometry>
        </mxCell>
        <mxCell id="1DaKglO0L2ceDpw5gByN-12" value="" style="endArrow=none;html=1;entryX=0.5;entryY=1;entryDx=0;entryDy=0;exitX=0.5;exitY=0;exitDx=0;exitDy=0;" edge="1" parent="1" source="1DaKglO0L2ceDpw5gByN-1" target="uZ9GTR5RrIheTeO01Olr-25">
          <mxGeometry width="50" height="50" relative="1" as="geometry">
            <mxPoint x="140" y="750" as="sourcePoint" />
            <mxPoint x="190" y="700" as="targetPoint" />
            <Array as="points">
              <mxPoint x="130" y="710" />
            </Array>
          </mxGeometry>
        </mxCell>
        <mxCell id="1DaKglO0L2ceDpw5gByN-13" value="" style="endArrow=none;html=1;exitX=0.5;exitY=0;exitDx=0;exitDy=0;" edge="1" parent="1" source="1DaKglO0L2ceDpw5gByN-2">
          <mxGeometry width="50" height="50" relative="1" as="geometry">
            <mxPoint x="190" y="730" as="sourcePoint" />
            <mxPoint x="200" y="680" as="targetPoint" />
            <Array as="points">
              <mxPoint x="270" y="710" />
            </Array>
          </mxGeometry>
        </mxCell>
        <mxCell id="1DaKglO0L2ceDpw5gByN-16" value="eth1&lt;br&gt;172.16.200.2" style="text;html=1;strokeColor=none;fillColor=none;align=center;verticalAlign=middle;whiteSpace=wrap;rounded=0;" vertex="1" parent="1">
          <mxGeometry x="393" y="810" width="65" height="30" as="geometry" />
        </mxCell>
        <mxCell id="1DaKglO0L2ceDpw5gByN-17" value="mgmt01&lt;br&gt;172.16.200.11" style="rounded=0;whiteSpace=wrap;html=1;" vertex="1" parent="1">
          <mxGeometry x="405" y="850" width="120" height="60" as="geometry" />
        </mxCell>
        <mxCell id="1DaKglO0L2ceDpw5gByN-18" value="" style="endArrow=none;html=1;entryX=0.5;entryY=1;entryDx=0;entryDy=0;" edge="1" parent="1" source="1DaKglO0L2ceDpw5gByN-17" target="1DaKglO0L2ceDpw5gByN-8">
          <mxGeometry width="50" height="50" relative="1" as="geometry">
            <mxPoint x="320" y="770" as="sourcePoint" />
            <mxPoint x="370" y="720" as="targetPoint" />
          </mxGeometry>
        </mxCell>
        <mxCell id="1DaKglO0L2ceDpw5gByN-19" value="" style="shape=image;verticalLabelPosition=bottom;labelBackgroundColor=#ffffff;verticalAlign=top;aspect=fixed;imageAspect=0;image=data:image/png,iVBORw0KGgoAAAANSUhEUgAAAN8AAADZCAYAAACgoOUxAAAgAElEQVR4Ae2c3+t+WXXf50/Jfe5qWygTelFawUvvAsGbEGmkJQkVB9JScjFXNgYTayhR5yIisagg1hAkBhxSM4E0eDGY6GCkMiZhTEBMnAFH/M4TXk/m9eU9a/Zzznl+fs73PGvD+exfa6+19nuv99nn+fLd+6ldp0agEXgQBJ56EKtttBFoBHZNvg6CRuCBEFgN+b7+nb/d/ceP/O/df/hvH338/Ltf/Z+7L3/tGw8ETZttBK6LwGrI954PfXL3R1/7y90f/vlfvOX56P/5v7t/+8xv7f7Nf/mN4fMLv/V7uxf//99eF6XW3ghcAYHVkO9f/8qHdv/ptz/7tueTf/Rnu588emP3k0ePhs+jN97Yvfcjn96RL0nvec97di+88MIS0YMyL7/88u6d73znwX46LmFn0sCCTuaJH53WicDZ5PviF7+4e+mllyZnRz9yUwnynZqOGXsrUtzKzhRmTb4pdB6+72zyfeUrX9l97GMfO0hAiEc/clPpGAJVPYfG/uAHP9i9733v273jHe/YPf3007vPfOYzb9mRvv71rz/uR+bZZ599rBryIJ+J/g9/+MP7JuRNc3aUI0cW3fr0zDPP7Nvso05f9Uci4RO7rn6QU0eenDmRkFcPufLYP2RjP7D/3AyBs8mHp4cIuJR46DhEoCVIHBpLkBt06CHoICGBSSJQv/SlLz02gfxzzz23r9NOPRNj+eQkEdCmOTvKkeNPkjztv/vd735sH1nklMVn7CdZkYGM+qSM9qjXOUzZcFznt0HgIuTD1UrAY4jH+EMEWgLDaCzEGv0uo03yVd2VcMga2PSxi5ok37F2IDeEcIdSHz5BjJqcA/2Wq0zW0eH8yJN8czZST5evj8DFyIerEvD5559f9KmZ0xsRKPunyqOxNfAcTzBmcBKsEInApi+DFaK480C83KUk3xI72jZHL3ax6actutE5evhUHNmhHf/YERmH7+jM+eV85mzoX+e3QeCi5MNlCUh+TIJAf/U3f3fSMyLfoR0pPzszUPGV4MxgJbiRMc/5SL4ldnJclv1XU3TwjHY+5Ufkg8T1M3Rq55uzoa3Ob4PAxcmH23xyHpsg0Esvv3LSMyIf9iHS1G++/A0HwQjkJB86bEs9tEu+JXaQMaHHnQmbkAVSkLANoUzIuTOOyFd/PyKTLxfqEhpbcza02/ltELgK+U5x/RrkI+Cm/rXTfzn0k43Ar+QjgOn3t59zS/LN2eHTMEmUPiWp0QPZ/YxETmKOyFftogv/kTWhg91bUk/ZcEznt0FgNeT7uQ/+7u7f/9ePnvQwtlMj8KQhsBry/eNrP9p97/v/eNLD2E6NwJOGwGrI96QB1/42Auci0OQ7F8Ee3wiciECT70TgelgjcC4CTb5zEezxjcCJCDT5TgSuhzUC5yLQ5DsXwR7fCJyIQJPvROB6WCNwLgJNvnMR7PGNwIkINPlOBK6HNQLnIrA58r3rv/+v3dxzLmg9vhG4BAKbI9+/+uUP7f7uBz88+NDfqRFYAwKbJN8UsE2+KXS675YINPluiXbbagQCgU2T71/+0q/v6vMv/vP/eEtbYPG2ImfpOAvH2T3P1b1N6AlqqGf9lro+Oku4dGzKca7Rc4XZbpnziHm+0fZb53lW85q2N02+0e+///fSdx7/Hpz7BCUQvMPlmotwK90PTb65eTb55hBaab87XO5sWaafBPlMU+QjEHgD+vD2ZxfME+2cOk9y1jtgtGNO8KPX3ZSx6KMdO+ScNDehT1lyfMi3MmV2Ek6+83BaXj/pS9+0QXvq0Fbm9YR/nVfOAb/8KtB26mI++EZeyYV/ntqnXPtTDz4py9UY+GSqOOkP/cybfm8PoI1+6xUn8SFnrGnKhjLH5pvZ+ZbuckvJB5A1GAiQ/Gwi8LwjBfnaXxeDxWTRSQQjY3kkNLrtJ5AJNgMJefQncSjrD3LI80JAloQu+6ljH71TSQLpE3qZZwYiRLBfP9XJfNIG9vGJlHhSxj99lVy0jxJzVRbb4gIpEkP68Ff/8Jt6+sRYxpmQSZwSY2TmbKjn2HxT5KuTnyPa1M6HrgwW6iyaQciCEFQEkAudi159oc7YDAL0QygTwQWBSNU2bfRnYGSZfvRnUFGWzPanfdpqQh4iZKLuvLPdchIOWclGP30SJefEPMVNPYxDZpSQR7cEVKbOmXaIJJnor/NxrDk45fzmcK021HNs3uSbQCyDRTGCgAAgUFg0FpaFJsAINBOLySLyGFC0ZfCP9Lvw9CUx0Uuw2k89y9SrfmxlUNV+6ujgOeQjelMPc8cvcGAcOurOIkYVk5xv9R072U89E7rAHN3kEhfMnUPmYlfnjE7m4zh8R4bHVH1TNvVT1objjs2bfBOIjYJB0rFoJIKRxcm37SGVNRBG+l14gotAk6wS3n5sZJl61Z+kGfWP/BztfMzN4KQMBvhjYv76SRtByUvJXLmcL3OTQPZjG5m5hIw7Onnu9nVsxYT++rKY2/nmbFSbS+tNvgmkMlgUY6FYPALQRPDRVoPJfvMaCCP9Sah8Q2ODt3/2ZxkbVf+IfPifxNE3c8bkXLBJXfLhc77xkc+XBHrAQUzSVs6XMkFtP2RFD+014QPtKSv5xEjskUnZigm6k/jIs5bOj35wpV17czaqv0vrmyefv/v4fVf/z+exv/kElcXLty27AcE2l2ogECQ12CqhUicBhm1Tla36CZoMKuoQCV8NLHVlDhGQQz/jc2dgHIFPn2SpdtFFW76gaKvzhcToQBfl7JfAjMMmfekThDThH3NCDzKJ6ci3Or/c2dFJHT0SnLYpG/pxbL5p8iUYEO0vX37lbU/KrK1MEEgScoI5d521+dv+HIfApshXd7asz+1yx8F2G+l827vL3MZyW7kFApsh32hXq223ALRtNAJLEdgM+ZZOuOUagbUg0ORby0q0H3eHQJPv7pa8J7wWBJp8a1mJ9uPuEGjy3d2S94TXgkCTby0r0X7cHQJNvrtb8p7wWhBo8q1lJdqPu0Ngc+TL/9VyqHx3q9wTXiUCmyMf/42s7+1cZay1UwWBTZKvzPEt1Sfx/3i+ZQJd2QwCTb7NLGVP5ElDYNPk80azzEc3mh1aNA+Sck4sz48dkq/tHgNiPA9HgjwihKxn1vL8WdVxqI6+cxNn1PLM2kjfJeyM9B7TBj6nYHSMjYeQ3TT5Rr//OFzrb8K5T1AW/Jzzcxzw5EyeibKHbj3YymHPUwLrVqS4lR0xGuVNvhEqK2pzd8udzfLzL35r982//t7e26996+XHXk+RjwUn8Hwki9cVoKQebs0T35yWhlg10UYfiV1wSWCx6+ZJbepJijxlzbm/1E89fcYuupgPT/o4Zyfngqwny+vpcfrQi4/pD+Odr6fY8cEvBGQZw1i/EEbrgJ4pG+nnmsub2fkO7XLf/+Fre/x/7ffftfvCi7+5+8mjR4/XY4p8CBkoDiBgcicj6NzJkMl+PuckgePVmdcrVBspS5kgJCgJUusGtrKQj2C0H3nr+IQNE+34TUryLbGjDnJ8wC6JsfoH0dFvnb6UxRf8SxzRQR1ZEjL5OVwxmrOxV/IE/NkU+Sre3t9C+89/6qf2zwc+/zO7r377c3vR3/mDP6lD3lKvi+7bFiECDxIRJO4sBJ1lAs4ATKUZ8LRXGylLmaBMstKGjdz56pgknIGqTL4g0pdj7TBvdDlf9TMf2jOBm2Siv84nZSlDwpxfxWjORtW31vrdkU8SfvDLP7v7xit/OrkuddER5q1NcBBAEJDdjcAlwHIXJNiO3fkgA0Hng72RD7RncGIf4tOGDzyMM+GLu5T+05fkW2JHfeRgAMmwmy8a2vQ/c7EZ2YHA+Ig8/lnWXh0zZ8Nxa8/vlnxJwr9/9bvDdaqLjpCkI+hIBCGBBQF4TBCPoKyJtiTlyEaOQWfdKSA6gUqS9LkDEZzoNblLm9ue5Juz45hRjh5IQ0IP9g+l0XwhW2I3t/PN2Thke23td08+SThamFGgEMAQLwkB+WhLAqBPUqqboHEHsG1kwz5yApHAJsCtQ2DJJ4GQI+EDNpJ8tNcdijbHUp6zg4wJWQjmfMklH33Y0l/GMG9eEqTRfJmPO7Pyzs8x2HOOczb2hp6AP5sn3zdffmW/DJKs5h/4/NO7r377s8OlGgUKggRaDZZKKuQIEkhKIPFQNoA0eMiG/eTubuggsHPno5/AxCdtUK/ko87YTEm+JXYgiSRi92bO+pR4IOOnI37lvEfzrfNDF3pNks256+shG45be75p8iX4lXS/+Omf3n38j5/dvfb6P6RYlxuBmyGwKfKNTjE889wX9mAm+T7xwvubdDcLsTZ0CIHNkK/e0VnrkO8jz793d+gfVw4B1O2NwLUQ2Az5rgVQ620EroVAk+9ayLbeRmAGgSbfDEDd3QhcC4Em37WQbb2NwAwCTb4ZgLq7EbgWAk2+ayHbehuBGQSafDMAdXcjcC0EmnzXQrb1NgIzCGyOfKP/5VLbZjDp7kbgJghsjnyjE+3e2UI+d3r9Jqi3kUZgt9ttknxTK9vkm0Kn+26JQJPvlmi3rUYgENg0+bzRLHNvNLMtsHhbMc+Uva3zhIa5832HDsIuMXUJXzlHxxm5qXQJO1P6l/SNzgQuGbc2mU2Tb/T775h7Oy8daBw+zesS8mQ7B1s5LMqB1XoQdknQXNrXQzZvZeeQfdqbfFPoPECfO1nubJZPubeTKWSgsWvliXF2iDyVXnc1ZPNE+ZI7XdCxJLDqyW/q6Ss7mKfMOUnunTHop+71Dy4TspD/2JPtjifHB14e+EGeLxD6vPoi/WGc8xVbfBBLZNHHWNqUp80HedKUjb3ACv9sZuc7tMudc28nC2wiAPLeFnYtgsygqP0ERQYhZJUE6iQn+FKvwZgyWZZABh11A1s5yEcwkpS3ni8E+mnHTxI60UVy3JSdveCbfxiHXcc6DqKj37r+Kst8IVl+EaCDOrIkZPJzuGI0Z2OvZIV/NkW+iu+593ZKvgzQtAFpDBplsz8DneA0AFOGNgOe9hpYKUsZe0lW2gi+kX3Hph8GavY5h/TlWDuQAzvoz8R8aM8EnpKJ/jqflKUMCXN+FaM5G1XfWup3Rz6vk1hyb6cLzls6CeLiZRAg65vafoIKGdIpOx9kQK8PetKmdsj1lTLEYbehjU9KHv2gH1/cedh19DvJt8RO2kcHJMNuvmho0//M8Yk0sgOB8RF5/LOsvTpmzobj1pbfLfmShIeulmDxSUt2PojGk4FM4Bj0S37zYasGVg2Y0Y6Ef+krgZ07EMGpH+iDePhqro0k35wdx4xy9DB3EnqwfyiN5gvZGGcCU+dHWx0zZ0M9a8vvnnyScLQwueC8zQlYEwvOW16y+eYn6HgM+Ax6SJFBRdkdQL01sGw3xw76CXASdXzTVwmkX5AQG+kH4+oORZtj1TtlBxmTc5fw5Iwl0Yct/aWNefPCII3my3zcmZV3fo4BX+c4Z2NvaIV/Nk++c+7tzAU3wAgq2nk7u/iH1hWyJtmQp43xPJSrjlEwVv0ELoRCB4GdOx+yBKZ+YsMXQerBDmMzJflon7MDSSQRO3v6lORBxk9H/Mp5j+Zb7aKLuZrADN+du74esuG4teWbJl+C7Q5nful7OwncfLtTJjjcDdKXLjcCILAp8tXTC9RvdW9nvt15S+eu0KHWCIwQ2Az56j2dtc6O1/d2jkKg2x4Kgc2Q76EAbLuNwKkINPlORa7HNQJnItDkOxPAHt4InIpAk+9U5HpcI3AmAk2+MwHs4Y3AqQg0+U5Frsc1Amci0OQ7E8Ae3gicikCT71TkelwjcCYCmyPf6H+51LYzMevhjcBFENgc+UYn2vvezovESiu5MAKbJN8URn1v5xQ63XdLBJp8t0S7bTUCgcCmyeeNZpl7o5ltgcXqinmGTec4PeHhWc7GcR4u06HDsylzqDyyd0j2UDtn7zhXN5UuYWdK/5K+0TnCJeMuKbNp8o1+/x1zb+clgT5FVw1SiMUZQc8NejiXw7IkzxBCzkrKJfarvSVjTpG5lZ0p35p8U+gc2edOljub5XPu7eQkOjsMD6e1DXACyKDXVd76kIM+SZKBRnmpPmR9IBOJE+CVVBAQ3zy0S31JYNXT4tTTV+biyXTnjg/VnnNHFmx49Je+OTuOVzbxy7nWHT+vYXS+nuDHB19M+M688Ik2EvJiS4689pGjLee877zCn83sfId2uXPv7fQaCBafBckrEPi8sp8FpB85EgtNMLCQJsrKz+ljTI6ljn5Jpk5yAmYUjCmTZQlk0FE36JSDfDmXnBvzqsSANCR0oou0xM5e8M0/jMOuY/VvtOOnLL7gn9iqkzo+kJDJz2HqOYc5G+q8ZL4p8lVgLnVvp3pzwWkjUFzQupj0s/BJoCzTP6WP/ipf68iQqu1af1PscUZQ8hLJRPAd0o9cEs5AdTx9Bn6S71g7YIku9GdiPrRn4sWQ2Nf5pCzluhYVozkbVd8l6ndHPu9wOebeToGGLL6NactAGy1eDega3FP60F/lT9n58BE9Puitgef80h7E8ROQT0oexpkIfHcp/HKHqZjkGMemHdvI0QHJsJvY0Kb/meMTaTQfsMdH5PHPsvbqmDkbjrtkfrfkSxLO3dsp4BkQtGWgsdgsMm0kAom3cQZalpGZ0kd/lUdfDWbsVFLWwNo7FH9GOxI7ifYoE9i5AxGcaRvi4Y+56hOTOTuOGeXoYV4k9GD/UBrNF7IxzgROzo+2OmbOhnoumd89+SThCNRcLPrnyELAELSMI8+AZvyx+pAnaHhIkIFdoRK8BmYNrP3g+CNhUw9z0z/aqadd5pPkQ13doWhzLOU5O+HSXpZ5SHhfZurJedMGWcCXNJov/rszK+/8HIM950g+ZWNv6MJ/Nk++S93bCe5z5KtrkwFEXy7+En0EGAHBW9xEwEkUdoZKCORGweh4c3c3fMJGfVEQmOinnx2OerVFnbGZkny0z9lhLsiQ7u3uz02TL4PCHc780vd2Yguy5JvUoE0/utwIiMCmyFdPL9zy3k4AdSdgtzi0Kwl8543AZshX7+msdXa8vrezA35NCGyGfGsCtX1pBJYg0ORbglLLNAJXQKDJdwVQW2UjsASBJt8SlFqmEbgCAk2+K4DaKhuBJQg0+Zag1DKNwBUQaPJdAdRW2QgsQaDJtwSllmkEroDA5sg3+l8ute0KOLbKRuBoBDZHvtGJ9r638+i46AE3QGCT5JvCre/tnEKn+26JQJPvlmi3rUYgENg0+bzRLHNvNLMtsHgiipx9mzrPxxnC0cHXucnVc3hz8of6OffH0apD6VJ2Dulf2l7PZi4dd0m5TZNv9PvvSbq3sy40xMrT1pwdzDODBDb9BFY9+Fp11fqtSHErO3V+td7kq4icUXcny50ty/ST8kazud9/nMsbncTWTRaQqwrych4IkafA6csDtuxKBKAJWR6SJ8rtI4dcXgtIuZIK3ZwdhJgk6shUudRJGZ3YY47Og9zEePvTLwmuHLk+jGzP2Uk9yHp6HpzyGgjKI38Yr/+5DqybdeYoxsrT5qMPUzaUuWS+mZ1v6S53LPlYWIKKZOAZ6PQREEkm2iCJyasg1EFQEGDUWWyCzIRsjkVGWWSSZI4hx6YEpT5HvjoPfGIe6DGhz3kij21TfYGk32l7iR11kkMGccI2fpHESX/I8df6aB0YyzgTMvk5TD3Xbc6Gei6Zb4p8FZg5oi3d+VIvb1AXkQXMoDeIU54yhHIMdcq8lTOAaCfwaDMAkcs3NsE5Shnw9Nd6HYPt9Jt+6sznUErCIZsvCfokSto+1g4ER7fz1xf8SiLRDjZiWtfBcZkzPudHOck3ZyN1Xarc5JtAchTsGVx1AesCqzrH2AbJMoBtT6JWcp6y82HbzyuDr/qNbQLRfoIf0mOPsbTjSwYrfchButy9c65zdpyzObqYP7rJ3dnQ7xwy98V0yI7j8B0ZHlMdo2zqp6wNx10yb/JNoAn4vtEVS3LUBUSWha4px9BHgNKGbNXvJ1WSQX2MYWwmCFBJmQRIWcujHYldxOCkjK3cgQjOJB9ByS5lru60PWfHMaMcPYwnkdedL8fUdaCvvizqi7GOmbOR9i5VbvJNIAn5WCSDkOBjUX0j1wVEFW0ErolAZkzVQR19BLV9jkEHYwjuTElM2hmHrfp2TgLkeMt1Hr40sEtifOpEHoKTm/AF33NujmU8ac6OusjxgXFiwdwlH3qwJe7IpOxoHfKFJE7OD3uUIaT25mykr5cqb558/u7j9139P55Lf/Ox8BCRQMudarToLCaBy+IzhgBygcmrDoIoycrCEhTIjRL2sYtubBjoKUvbqD1lCG5s+ILJnQE/8TttjOZKW/W92p6yI4HxC5uMTZ8Sa/zLdcj5jXyrdnNnx54vBnS6PlM2ErtLlTdNvgQJotUbzahPJYLvIRIBncH1ED60zesjsCny1Z0t63O73AjqW5OPt7M7kW/jkV/dtg0ENkO+0a5W27axZD2LrSCwGfJtZUF6HveDQJPvfta6Z7oyBJp8K1uQdud+EGjy3c9a90xXhkCTb2UL0u7cDwJNvvtZ657pyhBo8q1sQdqd+0GgyXc/a90zXRkCmyNf/q+WQ+WVrUG7c6cIbI58/DeyvKezlk/5b2Z3Ghs97SsjsEnyTWHW5JtCp/tuiUCT75Zot61GIBDYNPm80Szz0Y1mgcfFixwN8mwf587yjBrGPMlwrGH0XuLYEefZqk/py6XspM5Tyrc+YXKKj8eO2TT5Rr//OFzr78Brf4JyqJazeR4P8gCnJ7I5sOqh1WMX7lakuJWdufk3+eYQesB+d7fc2Sw//+K3dt/86+/tvfvat/75fksqc+RjwdkV2B3YtTgdnSe3IREykgudyEIy+tjxso9+glkd9i0JrDwdTzlJgR505g6r7rS3B+DNk/LMh1RPgU/Zcbw5svjOw0skd1DsjvxhLPKJK215ipxxYG3SBrl+0zdlw7Frzjez8x3a5b7/w9f2+P/a779r94UXf3P3k0ePHq/HEvKx2O5UBDSBYeKTkTqBQ8p++iSZ8uTuftlGUE0lgozgllAEJnZpN2HPfuXp0yf7aEOXwZ3kc5yyIzvaYx68aEzUHQcpmbt1iaWsJBJX2pGRvIxjftbprxjN2dDWmvNNka8C7f0ttP/8p35q/3zg8z+z++q3P7cX/Z0/+JM65C11FjwDhE4Cl0AjEXwEjSQjWC0TyEmOVFwDqdZTljKBWP3AziH9BG/qRFayGdjaSPIdYwdicN+KLx71kWNb4tmeOyP9dT7KmUOunF/OZ4kN9aw5vzvyScIPfvlnd9945U8n16YuOMLsMAQGweOb35wAMxhP3fkgA3Z5DL6RH/TZjy/YRg4CWXZyfuKl//Yl+ebsOMacuWILm/gC4SQ+uuojNiM74OXlSeDJ4/ywl2OW2NDHNed3S74k4d+/+t3hGuWCKyDpCBYeEmQksAgeE3IEZd0BCCh3R2VHduwjH+1IBL3BSVlfkDc4UwfBrO/kpiTfnB3H1Bx76cNo3jmmzteXQ/o1t/PN2Uh7ay3fPfkk4WiBapAoQyBDNINF4lVSEUC0SUB/7zlOfYfs2A/JCG711N9iEMhdhTEQsepkDHI8mZJ8c3ZyHPr8lKWdefoC8AWjv8zXFwWy1TdwwY+UH+189CszZyN9XWt58+T75pvXA0qymn/g80/vvvrtzw7XpwaJQgQZwZGJN3ESwD6ChD50EWD5jwjKHLJjPzlEVo+7ggHtzoEef4dVnQQt45Mw6E3yzdlhfr5gIBRlfcqXDHrwLT8jE5vqW7WLLudIHwnM0cdLyDRlQ5k155smXwJfSfeLn/7p3cf/+Nnda6//Q4p1uRG4GQKbIt/oFMMzz31hD2aS7xMvvL9Jd7MQa0OHENgM+eodnbUO+T7y/Ht3h/5x5RBA3d4IXAuBzZDvWgC13kbgWgg0+a6FbOttBGYQaPLNANTdjcC1EGjyXQvZ1tsIzCDQ5JsBqLsbgWsh0OS7FrKttxGYQaDJNwNQdzcC10KgyXctZFtvIzCDwObIN/pfLrVtBpPubgRugsDmyDc60e6dLeRzp9dvgnobaQR2u90myTe1sk2+KXS675YINPluiXbbagQCgU2TzxvNMvdGM9sCi6sV65m5kSHO23GOjbNuPPV8nP3oOjYtsT+nk/N7nKebSqNzelPy1+jjjJ/nHK+h/5I6N02+0e+/W97b6UItCX4O53oSnHF5YBfieZD0ocjnXKbyJt8UOm/v2wz53MlyZ7N8yr2dnPhm9zHx5ie4IIIJwniTGSe1PblNnifWIQz9nMJGRz1Rjq0RqWjz5Dl2vW5B+6McuWoHPfqJX/bjCyfGTWnPtjxRnuSqp+epZ7/jyfEJ3c49d3X6csdPf5wvGICpO1qeYE+saceGj3OespF+3rq8GfId2uVOvbeTBYMkJnYi6l6HkP20QUQISvITzTqBl0FCO/LqggySTHvkBFO+AAzGlKllbBmk9DEevw1ESKJd+pF3x6WdeibGOg/J5dzVSZ1x9ud4yviTpEr7dcdHTln0Yz/Jij6w0idltImtnD/tUzYc9xD5pshXATz33k5IYYBJFslAAFgm8DKg8IOANqgzwPURefST6NeO/eS00WeqddvNIRYkr4m2kX7kKuGQNbDTR2QlF/Ny7tpijP22mSPPPPAvEz6Ba03OgX7LVSbr6HB+lXxzNlLPrct3Rz6vk1hybydBw1uYwDJIzCGOhKONwKuPb/ARuQgKiXXKzsf4tEfgpM4MpLRvMDKWwKZPPxjjnCnnHKkzhlQDfN8Y/dYzRy84YdNdHvxyDllmNx3Nh3ZwZUdEHt/RiSyp+jZnI328dfluyZckPHS1hKQjcHhILDwLmm/kGqR1EQkQx9tHADKORDkJoAxtBipto2BUlvzQzpefnRmojGEuaZvgRsY89Us+5lJ3Pmzbn2NqGUzRjzyPL7MqR300X+SgcscAAAUnSURBVG3jnwkdh8g3Z0MdD5HfPfkk4SHwfVsTNCSJl8HHwiOnDIHBG9gAIbgNOHRIanSZGJ8EpUxbplEwZj9lbGHbhJ9JPsrpJ/1JPsbZlnpol1zMK3VSR4f92jZHj+RAlnlBChLjct7I+cIZzRddflEwHpn0xX6xn7Oxd+KB/myefOfc28majEjAYidxkKNOUBGAEC0DlwCjn52OfsYbYK47wULQ089DOQMIuVEwOt6cMdUO9hlLwi7+YcPAJ8+ELP2S1D7aTO4otPliyX4I4hzRlz4lNs4bTBiPnMQczbfOD105P/rxR5/wd8qG83mIfNPkS0Dd4cz73s5Ep8sPgcCmyFdPL1DvezsfIqza5hIENkO+ek9nrbPj9b2dS0KiZW6FwGbIdyvA2k4jcCkEmnyXQrL1NAJHItDkOxKwFm8ELoVAk+9SSLaeRuBIBJp8RwLW4o3ApRBo8l0KydbTCByJQJPvSMBavBG4FAJNvksh2XoagSMR2Bz5Rv/LpbYdiVGLNwJXQWBz5BudaO97O68SO630TAQ2Sb4pTPrezil0uu+WCDT5bol222oEAoFNk88bzTL3RjPbAouTi6NzZ0uUeag2z7ctGYdMnp1bOqbKecawtmf9EnZS3yll8DkFo1Ns3XLMpsk3+v13jXs7TyEfYzjwyUHQUwLrVqS4lZ2poG/yTaGzgj53stzZLF/73s5KPk5iQyzaSZzo9qQ2p909Bc8J6yWBNXdqPE/R5yl59FOvJ9LxAd9GfudpfOweIp9zpJ+55guEPl4q9KU/YOF8vQQJH+pJc8bSpjx6fMR0ysZ+4BPwZzM736Fd7hb3dmYQG5TkJgLHYIII2WcwKltzCWTQUTewlYV86lTeOkFeiQFZSOm346bsaI8cH/Il4jjmly8e/VUWXyBk3tuCPurIkpDhOglTxWjOhuPWnm+KfBXsW93baRATPLmz6Y9vf4PLdvIaWNlHmaDkPpdMBB+EPpSScAaqsvQZ+PpN37F2IAe60J+J+dCeiReBZKK/zidlKYNTzq9iNGej6ltr/e7I5x0ul7y3kyCGdDzuKrngBB8BBwnJM2AzsNDj55XBl/2p037aIA52adMPxpkIfHcefPAlkORbYkd95OiAZNhlF0QXibacg2X8Io3sgAc+Iot/lvcDBmPmbDhu7fndki9JeO69nZKG33aQq775MwgIPncB2kfBmPKjHQkyE6gkygR2Ehr76DVBPPwytz3JN2fHMaMcPZCGhJ65+advjAEPxpnmdr45G+pZe3735JOEhxbK3czgJoB52xPMpgxiAocx7jSQg2Bzt4Ggx5CPcQQ2NkjU8zefttWPn9ivAV53KHQ5Vr1TdvbG3/yDLQgmJuSSjz5s6S9DIAs4kPCr+pa/H5X35eIY7DnHORt7Q0/An82T7xb3dmYQs+YEGgFITqAQbNQJKALNQDSwajDWuEEeQjFevRmcBCbBT5s7b9WpD6l75PeUnfSdl0jK+rJx/n464hc+SRz8qL7V+aEr5yfZnPucjZzjmsubJl8C7w5n3vd2JjpdfggENkW+enqh7+18iJBqm0sR2Az56j2dtc6O1/d2Lg2LlrsFApsh3y3AahuNwCURaPJdEs3W1QgcgcBTb7zxxq6fxqBj4PYx0OTrl0+/fB8oBlZPvkePHu36aQxOjYE17+hP/fjHP9710xh0DNw+Bp760Y9+tOunMVhrDLz++uu7qWetfi/x66nXXntt109jsNYYePXVV3dTz1r9XuLXPwFsdRowoKdQ7wAAAABJRU5ErkJggg==;" vertex="1" parent="1">
          <mxGeometry x="-46.5" y="348" width="223" height="217" as="geometry" />
        </mxCell>
        <mxCell id="1DaKglO0L2ceDpw5gByN-20" value="" style="endArrow=classic;startArrow=classic;html=1;" edge="1" parent="1">
          <mxGeometry width="50" height="50" relative="1" as="geometry">
            <mxPoint x="65" y="330" as="sourcePoint" />
            <mxPoint x="65" y="220" as="targetPoint" />
          </mxGeometry>
        </mxCell>
      </root>
    </mxGraphModel>
  </diagram>
</mxfile>
